<?xml version="1.0" encoding="utf-8"?>
<!-- Generator: Adobe Illustrator 16.0.0, SVG Export Plug-In . SVG Version: 6.00 Build 0)  -->
<!DOCTYPE svg PUBLIC "-//W3C//DTD SVG 1.1//EN" "http://www.w3.org/Graphics/SVG/1.1/DTD/svg11.dtd">
<svg version="1.1" id="Capa_1" xmlns="http://www.w3.org/2000/svg" xmlns:xlink="http://www.w3.org/1999/xlink" x="0px" y="0px"
     width="585.657px" height="585.657px" viewBox="0 0 585.657 585.657" enable-background="new 0 0 585.657 585.657"
     xml:space="preserve">
<g>
    <g>
        <circle stroke="#000000" cx="209.754" cy="293.257" r="14.3"/>
        <path stroke="#000000" d="M418.655,307.557c17.898,0,35,3.301,50.898,9.102c3.801-57,2.301-129.102-14.699-207
            c-1.4-6.2-2.199-16.1-1.801-22.5l4.5-70.6c0.4-6.4-3.398-8.3-8.398-4.4l-33.602,25.9c-5.1,3.9-13,3.6-17.699-0.7l-28.9-26.4
            c-4.699-4.3-12.5-4.4-17.3-0.3l-38.399,32.9c-4.801,4.1-12.396,3.8-16.801-0.8l-33.896-35.3c-4.4-4.6-11.601-4.6-16,0l-33.9,35.3
            c-4.4,4.6-11.5,4.5-15.7-0.3l-34.5-38.7c-4.2-4.8-11.4-5-16-0.6l-37.3,35.9c-4.6,4.4-12.6,5.1-17.9,1.5l-42.8-29
            c-5.3-3.6-7.3-3.1-5.2,2.9c4.7,13.3,11.5,40.7,11.4,70.4h251.096c6.4,0,11.604,8.5,11.604,14.9c0,6.4-5.196,14.9-11.604,14.9
            H53.455c-0.2,0-0.3,2.1-0.6,4.3c-3.4,27.2-33.4,100.5,1.8,312.702c1,6.301,1.7,16.1,1.4,22.396c-1.1,20.9-3.9,64.805-8.5,89.201
            c-1.2,6.299,1.5,8.104,6.7,4.4l49-34.701c5.2-3.699,12.7-2.699,16.7,2.301l29.3,36c4,5,10.7,5,14.8,0.199l31-36.299
            c4.1-4.9,10.5-4.605,14.3,0.6l28.4,39.199c3.7,5.201,10.4,5.701,14.9,1.201l32.9-32.9c-9.5-18.801-15-39.801-15.7-62.1h-102.8
            c-6.4,0-11.6-8.5-11.6-14.9c0-6.396,5.2-14.896,11.6-14.896h104.8c4.399-26.104,15.5-50,31.7-69.604
            c-12,5.604-27.801,10.104-47.4,10.104h-4.8c-50.2,0-75.9-30.4-75.9-30.4l-42.4,12.4l-6.2-18.4l36.5-10.701
            c-0.8-1.199-1.7-2.299-1.7-2.299h-32.9v-29.5h27.9c0,0-1.2-20.101,11.6-28c2.5-3.7-14.9-72.1,3.8-78.8
            c14.9-5.8,56.9,42.3,56.9,42.3s16.7-4.8,22.5-4.8h4.8c5.801,0,22.5,4.8,22.5,4.8s41.9-48.1,56.9-42.3
            c18.7,6.6,1.2,75.1,3.801,78.8c12.899,7.9,11.604,27.9,11.604,27.9h35.3v18.199C396.655,308.858,407.553,307.557,418.655,307.557z
            "/>
        <circle stroke="#000000" cx="299.354" cy="293.257" r="14.3"/>
    </g>
</g>
<rect x="281.329" y="359.329" fill="none" width="194" height="133"/>
<text transform="matrix(1 0 0 1 329.0649 406.4009)"><tspan x="0" y="0" stroke="#000000" stroke-miterlimit="10" font-family="'TimesNewRomanPS-BoldMT'" font-size="71">Pet</tspan><tspan x="-27.717" y="85.2" stroke="#000000" stroke-miterlimit="10" font-family="'TimesNewRomanPS-BoldMT'" font-size="71">Shop</tspan></text>
</svg>
